<?xml version="1.0" encoding="UTF-8"?>
<svg version="1.1" xmlns="http://www.w3.org/2000/svg" width="180" height="180">
<path d="M0 0 C16.5 0 33 0 50 0 C50 3.3 50 6.6 50 10 C53.3 10 56.6 10 60 10 C60 13.3 60 16.6 60 20 C63.3 20 66.6 20 70 20 C70 33.2 70 46.4 70 60 C66.7 60 63.4 60 60 60 C60 66.6 60 73.2 60 80 C56.7 80 53.4 80 50 80 C50 83.3 50 86.6 50 90 C33.5 90 17 90 0 90 C0 86.7 0 83.4 0 80 C-3.3 80 -6.6 80 -10 80 C-10 73.4 -10 66.8 -10 60 C-13.3 60 -16.6 60 -20 60 C-20 46.8 -20 33.6 -20 20 C-16.7 20 -13.4 20 -10 20 C-10 16.7 -10 13.4 -10 10 C-6.7 10 -3.4 10 0 10 C0 6.7 0 3.4 0 0 Z " fill="#76DB4C" transform="translate(100,10)"/>
<path d="M0 0 C9.9 0 19.8 0 30 0 C30 3.3 30 6.6 30 10 C33.3 10 36.6 10 40 10 C40 19.9 40 29.8 40 40 C36.7 40 33.4 40 30 40 C30 43.3 30 46.6 30 50 C20.1 50 10.2 50 0 50 C0 46.7 0 43.4 0 40 C-3.3 40 -6.6 40 -10 40 C-10 30.1 -10 20.2 -10 10 C-6.7 10 -3.4 10 0 10 C0 6.7 0 3.4 0 0 Z " fill="#599931" transform="translate(30,80)"/>
<path d="M0 0 C6.6 0 13.2 0 20 0 C20 3.3 20 6.6 20 10 C29.9 10 39.8 10 50 10 C50 6.7 50 3.4 50 0 C56.6 0 63.2 0 70 0 C70 6.6 70 13.2 70 20 C66.7 20 63.4 20 60 20 C60 23.3 60 26.6 60 30 C43.5 30 27 30 10 30 C10 26.7 10 23.4 10 20 C6.7 20 3.4 20 0 20 C0 13.4 0 6.8 0 0 Z " fill="#4F8C29" transform="translate(90,70)"/>
<path d="M0 0 C3.3 0 6.6 0 10 0 C10 6.6 10 13.2 10 20 C16.6 20 23.2 20 30 20 C30 23.3 30 26.6 30 30 C33.3 30 36.6 30 40 30 C40 26.7 40 23.4 40 20 C46.6 20 53.2 20 60 20 C60 13.4 60 6.8 60 0 C63.3 0 66.6 0 70 0 C70 9.9 70 19.8 70 30 C63.4 30 56.8 30 50 30 C50 33.3 50 36.6 50 40 C40.1 40 30.2 40 20 40 C20 36.7 20 33.4 20 30 C13.4 30 6.8 30 0 30 C0 20.1 0 10.2 0 0 Z " fill="#76DB4C" transform="translate(90,40)"/>
<path d="M0 0 C6.6 0 13.2 0 20 0 C20 3.3 20 6.6 20 10 C23.3 10 26.6 10 30 10 C30 16.6 30 23.2 30 30 C26.7 30 23.4 30 20 30 C20 33.3 20 36.6 20 40 C13.4 40 6.8 40 0 40 C0 36.7 0 33.4 0 30 C-3.3 30 -6.6 30 -10 30 C-10 23.4 -10 16.8 -10 10 C-6.7 10 -3.4 10 0 10 C0 6.7 0 3.4 0 0 Z " fill="#76DB4C" transform="translate(100,130)"/>
<path d="M0 0 C16.5 0 33 0 50 0 C50 3.3 50 6.6 50 10 C36.8 10 23.6 10 10 10 C10 13.3 10 16.6 10 20 C6.7 20 3.4 20 0 20 C0 23.3 0 26.6 0 30 C-3.3 30 -6.6 30 -10 30 C-10 39.9 -10 49.8 -10 60 C-13.3 60 -16.6 60 -20 60 C-20 46.8 -20 33.6 -20 20 C-16.7 20 -13.4 20 -10 20 C-10 16.7 -10 13.4 -10 10 C-6.7 10 -3.4 10 0 10 C0 6.7 0 3.4 0 0 Z " fill="#3A6F1A" transform="translate(100,10)"/>
<path d="M0 0 C9.9 0 19.8 0 30 0 C30 6.6 30 13.2 30 20 C26.7 20 23.4 20 20 20 C20 23.3 20 26.6 20 30 C13.4 30 6.8 30 0 30 C0 20.1 0 10.2 0 0 Z " fill="#76DB4C" transform="translate(30,80)"/>
<path d="M0 0 C3.3 0 6.6 0 10 0 C10 3.3 10 6.6 10 10 C13.3 10 16.6 10 20 10 C20 23.2 20 36.4 20 50 C16.7 50 13.4 50 10 50 C10 40.1 10 30.2 10 20 C6.7 20 3.4 20 0 20 C0 13.4 0 6.8 0 0 Z " fill="#364B15" transform="translate(150,20)"/>
<path d="M0 0 C3.3 0 6.6 0 10 0 C10 6.6 10 13.2 10 20 C6.7 20 3.4 20 0 20 C0 23.3 0 26.6 0 30 C-6.6 30 -13.2 30 -20 30 C-20 26.7 -20 23.4 -20 20 C-16.7 20 -13.4 20 -10 20 C-10 16.7 -10 13.4 -10 10 C-6.7 10 -3.4 10 0 10 C0 6.7 0 3.4 0 0 Z " fill="#364B15" transform="translate(120,140)"/>
<path d="M0 0 C16.5 0 33 0 50 0 C50 3.3 50 6.6 50 10 C33.5 10 17 10 0 10 C0 6.7 0 3.4 0 0 Z " fill="#364B15" transform="translate(100,90)"/>
<path d="M0 0 C3.3 0 6.6 0 10 0 C10 3.3 10 6.6 10 10 C13.3 10 16.6 10 20 10 C20 16.6 20 23.2 20 30 C13.4 30 6.8 30 0 30 C0 20.1 0 10.2 0 0 Z " fill="#4F8C29" transform="translate(130,30)"/>
<path d="M0 0 C16.5 0 33 0 50 0 C50 3.3 50 6.6 50 10 C33.5 10 17 10 0 10 C0 6.7 0 3.4 0 0 Z " fill="#3A6F1A" transform="translate(100,10)"/>
<path d="M0 0 C6.6 0 13.2 0 20 0 C20 6.6 20 13.2 20 20 C13.4 20 6.8 20 0 20 C0 13.4 0 6.8 0 0 Z " fill="#4F8C29" transform="translate(140,70)"/>
<path d="M0 0 C6.6 0 13.2 0 20 0 C20 6.6 20 13.2 20 20 C13.4 20 6.8 20 0 20 C0 13.4 0 6.8 0 0 Z " fill="#4F8C29" transform="translate(100,40)"/>
<path d="M0 0 C9.9 0 19.8 0 30 0 C30 3.3 30 6.6 30 10 C20.1 10 10.2 10 0 10 C0 6.7 0 3.4 0 0 Z " fill="#364B15" transform="translate(30,120)"/>
<path d="M0 0 C3.3 0 6.6 0 10 0 C10 9.9 10 19.8 10 30 C6.7 30 3.4 30 0 30 C0 20.1 0 10.2 0 0 Z " fill="#364B15" transform="translate(60,90)"/>
<path d="M0 0 C3.3 0 6.6 0 10 0 C10 9.9 10 19.8 10 30 C6.7 30 3.4 30 0 30 C0 20.1 0 10.2 0 0 Z " fill="#3A6F1A" transform="translate(20,90)"/>
<path d="M0 0 C9.9 0 19.8 0 30 0 C30 3.3 30 6.6 30 10 C20.1 10 10.2 10 0 10 C0 6.7 0 3.4 0 0 Z " fill="#3A6F1A" transform="translate(30,80)"/>
<path d="M0 0 C3.3 0 6.6 0 10 0 C10 9.9 10 19.8 10 30 C6.7 30 3.4 30 0 30 C0 20.1 0 10.2 0 0 Z " fill="#76DB4C" transform="translate(150,40)"/>
<path d="M0 0 C3.3 0 6.6 0 10 0 C10 9.9 10 19.8 10 30 C6.7 30 3.4 30 0 30 C0 20.1 0 10.2 0 0 Z " fill="#76DB4C" transform="translate(90,40)"/>
<path d="M0 0 C6.6 0 13.2 0 20 0 C20 3.3 20 6.6 20 10 C16.7 10 13.4 10 10 10 C10 13.3 10 16.6 10 20 C6.7 20 3.4 20 0 20 C0 13.4 0 6.8 0 0 Z " fill="#64A63A" transform="translate(90,20)"/>
<path d="M0 0 C6.6 0 13.2 0 20 0 C20 3.3 20 6.6 20 10 C13.4 10 6.8 10 0 10 C0 6.7 0 3.4 0 0 Z " fill="#364B15" transform="translate(100,160)"/>
<path d="M0 0 C3.3 0 6.6 0 10 0 C10 6.6 10 13.2 10 20 C6.7 20 3.4 20 0 20 C0 13.4 0 6.8 0 0 Z " fill="#3A6F1A" transform="translate(90,140)"/>
<path d="M0 0 C6.6 0 13.2 0 20 0 C20 3.3 20 6.6 20 10 C13.4 10 6.8 10 0 10 C0 6.7 0 3.4 0 0 Z " fill="#3A6F1A" transform="translate(100,130)"/>
<path d="M0 0 C3.3 0 6.6 0 10 0 C10 6.6 10 13.2 10 20 C6.7 20 3.4 20 0 20 C0 13.4 0 6.8 0 0 Z " fill="#364B15" transform="translate(150,70)"/>
<path d="M0 0 C3.3 0 6.6 0 10 0 C10 6.6 10 13.2 10 20 C6.7 20 3.4 20 0 20 C0 13.4 0 6.8 0 0 Z " fill="#364B15" transform="translate(90,70)"/>
<path d="M0 0 C3.3 0 6.6 0 10 0 C10 6.6 10 13.2 10 20 C6.7 20 3.4 20 0 20 C0 13.4 0 6.8 0 0 Z " fill="#64A63A" transform="translate(150,20)"/>
<path d="M0 0 C6.6 0 13.2 0 20 0 C20 3.3 20 6.6 20 10 C13.4 10 6.8 10 0 10 C0 6.7 0 3.4 0 0 Z " fill="#64A63A" transform="translate(100,30)"/>
<path d="M0 0 C3.3 0 6.6 0 10 0 C10 3.3 10 6.6 10 10 C6.7 10 3.4 10 0 10 C0 6.7 0 3.4 0 0 Z " fill="#4F8C29" transform="translate(110,150)"/>
<path d="M0 0 C3.3 0 6.6 0 10 0 C10 3.3 10 6.6 10 10 C6.7 10 3.4 10 0 10 C0 6.7 0 3.4 0 0 Z " fill="#76DB4C" transform="translate(100,150)"/>
<path d="M0 0 C3.3 0 6.6 0 10 0 C10 3.3 10 6.6 10 10 C6.7 10 3.4 10 0 10 C0 6.7 0 3.4 0 0 Z " fill="#3A6F1A" transform="translate(120,140)"/>
<path d="M0 0 C3.3 0 6.6 0 10 0 C10 3.3 10 6.6 10 10 C6.7 10 3.4 10 0 10 C0 6.7 0 3.4 0 0 Z " fill="#BFE970" transform="translate(100,140)"/>
<path d="M0 0 C3.3 0 6.6 0 10 0 C10 3.3 10 6.6 10 10 C6.7 10 3.4 10 0 10 C0 6.7 0 3.4 0 0 Z " fill="#4F8C29" transform="translate(30,110)"/>
<path d="M0 0 C3.3 0 6.6 0 10 0 C10 3.3 10 6.6 10 10 C6.7 10 3.4 10 0 10 C0 6.7 0 3.4 0 0 Z " fill="#64A63A" transform="translate(50,100)"/>
<path d="M0 0 C3.3 0 6.6 0 10 0 C10 3.3 10 6.6 10 10 C6.7 10 3.4 10 0 10 C0 6.7 0 3.4 0 0 Z " fill="#3A6F1A" transform="translate(60,90)"/>
<path d="M0 0 C3.3 0 6.6 0 10 0 C10 3.3 10 6.6 10 10 C6.7 10 3.4 10 0 10 C0 6.7 0 3.4 0 0 Z " fill="#BFE970" transform="translate(30,90)"/>
<path d="M0 0 C3.3 0 6.6 0 10 0 C10 3.3 10 6.6 10 10 C6.7 10 3.4 10 0 10 C0 6.7 0 3.4 0 0 Z " fill="#64A63A" transform="translate(130,80)"/>
<path d="M0 0 C3.3 0 6.6 0 10 0 C10 3.3 10 6.6 10 10 C6.7 10 3.4 10 0 10 C0 6.7 0 3.4 0 0 Z " fill="#4F8C29" transform="translate(120,80)"/>
<path d="M0 0 C3.3 0 6.6 0 10 0 C10 3.3 10 6.6 10 10 C6.7 10 3.4 10 0 10 C0 6.7 0 3.4 0 0 Z " fill="#64A63A" transform="translate(110,80)"/>
<path d="M0 0 C3.3 0 6.6 0 10 0 C10 3.3 10 6.6 10 10 C6.7 10 3.4 10 0 10 C0 6.7 0 3.4 0 0 Z " fill="#64A63A" transform="translate(140,70)"/>
<path d="M0 0 C3.3 0 6.6 0 10 0 C10 3.3 10 6.6 10 10 C6.7 10 3.4 10 0 10 C0 6.7 0 3.4 0 0 Z " fill="#64A63A" transform="translate(100,70)"/>
<path d="M0 0 C3.3 0 6.6 0 10 0 C10 3.3 10 6.6 10 10 C6.7 10 3.4 10 0 10 C0 6.7 0 3.4 0 0 Z " fill="#64A63A" transform="translate(150,60)"/>
<path d="M0 0 C3.3 0 6.6 0 10 0 C10 3.3 10 6.6 10 10 C6.7 10 3.4 10 0 10 C0 6.7 0 3.4 0 0 Z " fill="#4F8C29" transform="translate(120,60)"/>
<path d="M0 0 C3.3 0 6.6 0 10 0 C10 3.3 10 6.6 10 10 C6.7 10 3.4 10 0 10 C0 6.7 0 3.4 0 0 Z " fill="#64A63A" transform="translate(90,60)"/>
<path d="M0 0 C3.3 0 6.6 0 10 0 C10 3.3 10 6.6 10 10 C6.7 10 3.4 10 0 10 C0 6.7 0 3.4 0 0 Z " fill="#64A63A" transform="translate(130,50)"/>
<path d="M0 0 C3.3 0 6.6 0 10 0 C10 3.3 10 6.6 10 10 C6.7 10 3.4 10 0 10 C0 6.7 0 3.4 0 0 Z " fill="#64A63A" transform="translate(110,50)"/>
<path d="M0 0 C3.3 0 6.6 0 10 0 C10 3.3 10 6.6 10 10 C6.7 10 3.4 10 0 10 C0 6.7 0 3.4 0 0 Z " fill="#64A63A" transform="translate(130,30)"/>
<path d="M0 0 C3.3 0 6.6 0 10 0 C10 3.3 10 6.6 10 10 C6.7 10 3.4 10 0 10 C0 6.7 0 3.4 0 0 Z " fill="#76DB4C" transform="translate(100,30)"/>
<path d="M0 0 C3.3 0 6.6 0 10 0 C10 3.3 10 6.6 10 10 C6.7 10 3.4 10 0 10 C0 6.7 0 3.4 0 0 Z " fill="#64A63A" transform="translate(90,30)"/>
<path d="M0 0 C3.3 0 6.6 0 10 0 C10 3.3 10 6.6 10 10 C6.7 10 3.4 10 0 10 C0 6.7 0 3.4 0 0 Z " fill="#364B15" transform="translate(150,20)"/>
<path d="M0 0 C3.3 0 6.6 0 10 0 C10 3.3 10 6.6 10 10 C6.7 10 3.4 10 0 10 C0 6.7 0 3.4 0 0 Z " fill="#64A63A" transform="translate(140,20)"/>
<path d="M0 0 C3.3 0 6.6 0 10 0 C10 3.3 10 6.6 10 10 C6.7 10 3.4 10 0 10 C0 6.7 0 3.4 0 0 Z " fill="#3A6F1A" transform="translate(90,20)"/>
<path d="M0 0 C3.3 0 6.6 0 10 0 C10 3.3 10 6.6 10 10 C6.7 10 3.4 10 0 10 C0 6.7 0 3.4 0 0 Z " fill="#364B15" transform="translate(140,10)"/>
</svg>
