<?xml version="1.0" encoding="UTF-8"?>
<svg version="1.1" xmlns="http://www.w3.org/2000/svg" width="180" height="180">
<path d="M0 0 C6.6 0 13.2 0 20 0 C20 3.3 20 6.6 20 10 C23.3 10 26.6 10 30 10 C30 13.3 30 16.6 30 20 C33.3 20 36.6 20 40 20 C40 23.3 40 26.6 40 30 C43.3 30 46.6 30 50 30 C50 33.3 50 36.6 50 40 C53.3 40 56.6 40 60 40 C60 43.3 60 46.6 60 50 C63.3 50 66.6 50 70 50 C70 53.3 70 56.6 70 60 C60.1 60 50.2 60 40 60 C40 73.2 40 86.4 40 100 C43.3 100 46.6 100 50 100 C50 103.3 50 106.6 50 110 C53.3 110 56.6 110 60 110 C60 113.3 60 116.6 60 120 C63.3 120 66.6 120 70 120 C70 123.3 70 126.6 70 130 C60.1 130 50.2 130 40 130 C40 139.9 40 149.8 40 160 C20.2 160 0.4 160 -20 160 C-20 150.1 -20 140.2 -20 130 C-29.9 130 -39.8 130 -50 130 C-50 126.7 -50 123.4 -50 120 C-46.7 120 -43.4 120 -40 120 C-40 116.7 -40 113.4 -40 110 C-36.7 110 -33.4 110 -30 110 C-30 106.7 -30 103.4 -30 100 C-26.7 100 -23.4 100 -20 100 C-20 86.8 -20 73.6 -20 60 C-29.9 60 -39.8 60 -50 60 C-50 56.7 -50 53.4 -50 50 C-46.7 50 -43.4 50 -40 50 C-40 46.7 -40 43.4 -40 40 C-36.7 40 -33.4 40 -30 40 C-30 36.7 -30 33.4 -30 30 C-26.7 30 -23.4 30 -20 30 C-20 26.7 -20 23.4 -20 20 C-16.7 20 -13.4 20 -10 20 C-10 16.7 -10 13.4 -10 10 C-6.7 10 -3.4 10 0 10 C0 6.7 0 3.4 0 0 Z " fill="#9AD8FA" transform="translate(80,10)"/>
<path d="M0 0 C6.6 0 13.2 0 20 0 C20 3.3 20 6.6 20 10 C23.3 10 26.6 10 30 10 C30 13.3 30 16.6 30 20 C36.6 20 43.2 20 50 20 C50 23.3 50 26.6 50 30 C53.3 30 56.6 30 60 30 C60 33.3 60 36.6 60 40 C63.3 40 66.6 40 70 40 C70 43.3 70 46.6 70 50 C60.1 50 50.2 50 40 50 C40 59.9 40 69.8 40 80 C20.2 80 0.4 80 -20 80 C-20 70.1 -20 60.2 -20 50 C-29.9 50 -39.8 50 -50 50 C-50 46.7 -50 43.4 -50 40 C-46.7 40 -43.4 40 -40 40 C-40 36.7 -40 33.4 -40 30 C-36.7 30 -33.4 30 -30 30 C-30 26.7 -30 23.4 -30 20 C-23.4 20 -16.8 20 -10 20 C-10 16.7 -10 13.4 -10 10 C-6.7 10 -3.4 10 0 10 C0 6.7 0 3.4 0 0 Z " fill="#FAFAFA" transform="translate(80,90)"/>
<path d="M0 0 C3.3 0 6.6 0 10 0 C10 3.3 10 6.6 10 10 C16.6 10 23.2 10 30 10 C30 16.6 30 23.2 30 30 C43.2 30 56.4 30 70 30 C70 23.4 70 16.8 70 10 C76.6 10 83.2 10 90 10 C90 6.7 90 3.4 90 0 C93.3 0 96.6 0 100 0 C100 3.3 100 6.6 100 10 C103.3 10 106.6 10 110 10 C110 13.3 110 16.6 110 20 C100.1 20 90.2 20 80 20 C80 33.2 80 46.4 80 60 C76.7 60 73.4 60 70 60 C70 56.7 70 53.4 70 50 C66.7 50 63.4 50 60 50 C60 46.7 60 43.4 60 40 C53.4 40 46.8 40 40 40 C40 43.3 40 46.6 40 50 C36.7 50 33.4 50 30 50 C30 53.3 30 56.6 30 60 C26.7 60 23.4 60 20 60 C20 46.8 20 33.6 20 20 C10.1 20 0.2 20 -10 20 C-10 16.7 -10 13.4 -10 10 C-6.7 10 -3.4 10 0 10 C0 6.7 0 3.4 0 0 Z " fill="#458FAB" transform="translate(40,50)"/>
<path d="M0 0 C3.3 0 6.6 0 10 0 C10 6.6 10 13.2 10 20 C23.2 20 36.4 20 50 20 C50 13.4 50 6.8 50 0 C53.3 0 56.6 0 60 0 C60 9.9 60 19.8 60 30 C40.2 30 20.4 30 0 30 C0 20.1 0 10.2 0 0 Z " fill="#458FAB" transform="translate(60,140)"/>
<path d="M0 0 C3.3 0 6.6 0 10 0 C10 3.3 10 6.6 10 10 C13.3 10 16.6 10 20 10 C20 13.3 20 16.6 20 20 C23.3 20 26.6 20 30 20 C30 23.3 30 26.6 30 30 C20.1 30 10.2 30 0 30 C0 20.1 0 10.2 0 0 Z " fill="#458FAB" transform="translate(120,110)"/>
<path d="M0 0 C3.3 0 6.6 0 10 0 C10 9.9 10 19.8 10 30 C0.1 30 -9.8 30 -20 30 C-20 26.7 -20 23.4 -20 20 C-16.7 20 -13.4 20 -10 20 C-10 16.7 -10 13.4 -10 10 C-6.7 10 -3.4 10 0 10 C0 6.7 0 3.4 0 0 Z " fill="#458FAB" transform="translate(50,110)"/>
<path d="M0 0 C6.6 0 13.2 0 20 0 C20 3.3 20 6.6 20 10 C16.7 10 13.4 10 10 10 C10 16.6 10 23.2 10 30 C6.7 30 3.4 30 0 30 C0 20.1 0 10.2 0 0 Z " fill="#DEF3F2" transform="translate(100,130)"/>
<path d="M0 0 C6.6 0 13.2 0 20 0 C20 9.9 20 19.8 20 30 C16.7 30 13.4 30 10 30 C10 23.4 10 16.8 10 10 C6.7 10 3.4 10 0 10 C0 6.7 0 3.4 0 0 Z " fill="#DEF3F2" transform="translate(60,130)"/>
<path d="M0 0 C3.3 0 6.6 0 10 0 C10 3.3 10 6.6 10 10 C13.3 10 16.6 10 20 10 C20 13.3 20 16.6 20 20 C13.4 20 6.8 20 0 20 C0 13.4 0 6.8 0 0 Z " fill="#9AD8FA" transform="translate(120,110)"/>
<path d="M0 0 C3.3 0 6.6 0 10 0 C10 6.6 10 13.2 10 20 C3.4 20 -3.2 20 -10 20 C-10 16.7 -10 13.4 -10 10 C-6.7 10 -3.4 10 0 10 C0 6.7 0 3.4 0 0 Z " fill="#9AD8FA" transform="translate(50,110)"/>
<path d="M0 0 C6.6 0 13.2 0 20 0 C20 3.3 20 6.6 20 10 C13.4 10 6.8 10 0 10 C0 6.7 0 3.4 0 0 Z " fill="#DEF3F2" transform="translate(80,150)"/>
<path d="M0 0 C6.6 0 13.2 0 20 0 C20 3.3 20 6.6 20 10 C13.4 10 6.8 10 0 10 C0 6.7 0 3.4 0 0 Z " fill="#458FAB" transform="translate(80,80)"/>
<path d="M0 0 C6.6 0 13.2 0 20 0 C20 3.3 20 6.6 20 10 C13.4 10 6.8 10 0 10 C0 6.7 0 3.4 0 0 Z " fill="#5AAFCF" transform="translate(80,10)"/>
<path d="M0 0 C3.3 0 6.6 0 10 0 C10 3.3 10 6.6 10 10 C6.7 10 3.4 10 0 10 C0 6.7 0 3.4 0 0 Z " fill="#9AD8FA" transform="translate(100,150)"/>
<path d="M0 0 C3.3 0 6.6 0 10 0 C10 3.3 10 6.6 10 10 C6.7 10 3.4 10 0 10 C0 6.7 0 3.4 0 0 Z " fill="#9AD8FA" transform="translate(70,150)"/>
<path d="M0 0 C3.3 0 6.6 0 10 0 C10 3.3 10 6.6 10 10 C6.7 10 3.4 10 0 10 C0 6.7 0 3.4 0 0 Z " fill="#9AD8FA" transform="translate(110,130)"/>
<path d="M0 0 C3.3 0 6.6 0 10 0 C10 3.3 10 6.6 10 10 C6.7 10 3.4 10 0 10 C0 6.7 0 3.4 0 0 Z " fill="#9AD8FA" transform="translate(60,130)"/>
<path d="M0 0 C3.3 0 6.6 0 10 0 C10 3.3 10 6.6 10 10 C6.7 10 3.4 10 0 10 C0 6.7 0 3.4 0 0 Z " fill="#5AAFCF" transform="translate(130,120)"/>
<path d="M0 0 C3.3 0 6.6 0 10 0 C10 3.3 10 6.6 10 10 C6.7 10 3.4 10 0 10 C0 6.7 0 3.4 0 0 Z " fill="#5AAFCF" transform="translate(40,120)"/>
<path d="M0 0 C3.3 0 6.6 0 10 0 C10 3.3 10 6.6 10 10 C6.7 10 3.4 10 0 10 C0 6.7 0 3.4 0 0 Z " fill="#5AAFCF" transform="translate(120,110)"/>
<path d="M0 0 C3.3 0 6.6 0 10 0 C10 3.3 10 6.6 10 10 C6.7 10 3.4 10 0 10 C0 6.7 0 3.4 0 0 Z " fill="#DEF3F2" transform="translate(110,110)"/>
<path d="M0 0 C3.3 0 6.6 0 10 0 C10 3.3 10 6.6 10 10 C6.7 10 3.4 10 0 10 C0 6.7 0 3.4 0 0 Z " fill="#DEF3F2" transform="translate(60,110)"/>
<path d="M0 0 C3.3 0 6.6 0 10 0 C10 3.3 10 6.6 10 10 C6.7 10 3.4 10 0 10 C0 6.7 0 3.4 0 0 Z " fill="#5AAFCF" transform="translate(50,110)"/>
<path d="M0 0 C3.3 0 6.6 0 10 0 C10 3.3 10 6.6 10 10 C6.7 10 3.4 10 0 10 C0 6.7 0 3.4 0 0 Z " fill="#5AAFCF" transform="translate(110,100)"/>
<path d="M0 0 C3.3 0 6.6 0 10 0 C10 3.3 10 6.6 10 10 C6.7 10 3.4 10 0 10 C0 6.7 0 3.4 0 0 Z " fill="#5AAFCF" transform="translate(60,100)"/>
<path d="M0 0 C3.3 0 6.6 0 10 0 C10 3.3 10 6.6 10 10 C6.7 10 3.4 10 0 10 C0 6.7 0 3.4 0 0 Z " fill="#5AAFCF" transform="translate(100,80)"/>
<path d="M0 0 C3.3 0 6.6 0 10 0 C10 3.3 10 6.6 10 10 C6.7 10 3.4 10 0 10 C0 6.7 0 3.4 0 0 Z " fill="#5AAFCF" transform="translate(70,80)"/>
<path d="M0 0 C3.3 0 6.6 0 10 0 C10 3.3 10 6.6 10 10 C6.7 10 3.4 10 0 10 C0 6.7 0 3.4 0 0 Z " fill="#5AAFCF" transform="translate(110,60)"/>
<path d="M0 0 C3.3 0 6.6 0 10 0 C10 3.3 10 6.6 10 10 C6.7 10 3.4 10 0 10 C0 6.7 0 3.4 0 0 Z " fill="#5AAFCF" transform="translate(60,60)"/>
<path d="M0 0 C3.3 0 6.6 0 10 0 C10 3.3 10 6.6 10 10 C6.7 10 3.4 10 0 10 C0 6.7 0 3.4 0 0 Z " fill="#5AAFCF" transform="translate(130,50)"/>
<path d="M0 0 C3.3 0 6.6 0 10 0 C10 3.3 10 6.6 10 10 C6.7 10 3.4 10 0 10 C0 6.7 0 3.4 0 0 Z " fill="#5AAFCF" transform="translate(40,50)"/>
<path d="M0 0 C3.3 0 6.6 0 10 0 C10 3.3 10 6.6 10 10 C6.7 10 3.4 10 0 10 C0 6.7 0 3.4 0 0 Z " fill="#5AAFCF" transform="translate(120,40)"/>
<path d="M0 0 C3.3 0 6.6 0 10 0 C10 3.3 10 6.6 10 10 C6.7 10 3.4 10 0 10 C0 6.7 0 3.4 0 0 Z " fill="#5AAFCF" transform="translate(50,40)"/>
<path d="M0 0 C3.3 0 6.6 0 10 0 C10 3.3 10 6.6 10 10 C6.7 10 3.4 10 0 10 C0 6.7 0 3.4 0 0 Z " fill="#5AAFCF" transform="translate(110,30)"/>
<path d="M0 0 C3.3 0 6.6 0 10 0 C10 3.3 10 6.6 10 10 C6.7 10 3.4 10 0 10 C0 6.7 0 3.4 0 0 Z " fill="#5AAFCF" transform="translate(60,30)"/>
<path d="M0 0 C3.3 0 6.6 0 10 0 C10 3.3 10 6.6 10 10 C6.7 10 3.4 10 0 10 C0 6.7 0 3.4 0 0 Z " fill="#5AAFCF" transform="translate(100,20)"/>
<path d="M0 0 C3.3 0 6.6 0 10 0 C10 3.3 10 6.6 10 10 C6.7 10 3.4 10 0 10 C0 6.7 0 3.4 0 0 Z " fill="#5AAFCF" transform="translate(70,20)"/>
</svg>
