<?xml version="1.0" encoding="UTF-8"?>
<svg version="1.1" xmlns="http://www.w3.org/2000/svg" width="180" height="180">
<path d="M0 0 C9.9 0 19.8 0 30 0 C30 3.3 30 6.6 30 10 C49.8 10 69.6 10 90 10 C90 6.7 90 3.4 90 0 C99.9 0 109.8 0 120 0 C120 3.3 120 6.6 120 10 C123.3 10 126.6 10 130 10 C130 39.7 130 69.4 130 100 C126.7 100 123.4 100 120 100 C120 106.6 120 113.2 120 120 C116.7 120 113.4 120 110 120 C110 123.3 110 126.6 110 130 C106.7 130 103.4 130 100 130 C100 133.3 100 136.6 100 140 C96.7 140 93.4 140 90 140 C90 143.3 90 146.6 90 150 C86.7 150 83.4 150 80 150 C80 153.3 80 156.6 80 160 C66.8 160 53.6 160 40 160 C40 156.7 40 153.4 40 150 C36.7 150 33.4 150 30 150 C30 146.7 30 143.4 30 140 C26.7 140 23.4 140 20 140 C20 136.7 20 133.4 20 130 C16.7 130 13.4 130 10 130 C10 126.7 10 123.4 10 120 C6.7 120 3.4 120 0 120 C0 113.4 0 106.8 0 100 C-3.3 100 -6.6 100 -10 100 C-10 70.3 -10 40.6 -10 10 C-6.7 10 -3.4 10 0 10 C0 6.7 0 3.4 0 0 Z " fill="#969DAB" transform="translate(30,10)"/>
<path d="M0 0 C3.3 0 6.6 0 10 0 C10 13.2 10 26.4 10 40 C13.3 40 16.6 40 20 40 C20 49.9 20 59.8 20 70 C23.3 70 26.6 70 30 70 C30 83.2 30 96.4 30 110 C33.3 110 36.6 110 40 110 C40 113.3 40 116.6 40 120 C59.8 120 79.6 120 100 120 C100 113.4 100 106.8 100 100 C93.4 100 86.8 100 80 100 C80 96.7 80 93.4 80 90 C73.4 90 66.8 90 60 90 C60 93.3 60 96.6 60 100 C56.7 100 53.4 100 50 100 C50 93.4 50 86.8 50 80 C53.3 80 56.6 80 60 80 C60 76.7 60 73.4 60 70 C56.7 70 53.4 70 50 70 C50 66.7 50 63.4 50 60 C46.7 60 43.4 60 40 60 C40 56.7 40 53.4 40 50 C36.7 50 33.4 50 30 50 C30 43.4 30 36.8 30 30 C36.6 30 43.2 30 50 30 C50 33.3 50 36.6 50 40 C53.3 40 56.6 40 60 40 C60 43.3 60 46.6 60 50 C63.3 50 66.6 50 70 50 C70 53.3 70 56.6 70 60 C73.3 60 76.6 60 80 60 C80 56.7 80 53.4 80 50 C86.6 50 93.2 50 100 50 C100 53.3 100 56.6 100 60 C96.7 60 93.4 60 90 60 C90 66.6 90 73.2 90 80 C93.3 80 96.6 80 100 80 C100 83.3 100 86.6 100 90 C103.3 90 106.6 90 110 90 C110 83.4 110 76.8 110 70 C113.3 70 116.6 70 120 70 C120 60.1 120 50.2 120 40 C123.3 40 126.6 40 130 40 C130 26.8 130 13.6 130 0 C133.3 0 136.6 0 140 0 C140 29.7 140 59.4 140 90 C136.7 90 133.4 90 130 90 C130 96.6 130 103.2 130 110 C126.7 110 123.4 110 120 110 C120 113.3 120 116.6 120 120 C116.7 120 113.4 120 110 120 C110 123.3 110 126.6 110 130 C106.7 130 103.4 130 100 130 C100 133.3 100 136.6 100 140 C96.7 140 93.4 140 90 140 C90 143.3 90 146.6 90 150 C76.8 150 63.6 150 50 150 C50 146.7 50 143.4 50 140 C46.7 140 43.4 140 40 140 C40 136.7 40 133.4 40 130 C36.7 130 33.4 130 30 130 C30 126.7 30 123.4 30 120 C26.7 120 23.4 120 20 120 C20 116.7 20 113.4 20 110 C16.7 110 13.4 110 10 110 C10 103.4 10 96.8 10 90 C6.7 90 3.4 90 0 90 C0 60.3 0 30.6 0 0 Z " fill="#6F7689" transform="translate(20,20)"/>
<path d="M0 0 C3.3 0 6.6 0 10 0 C10 13.2 10 26.4 10 40 C13.3 40 16.6 40 20 40 C20 49.9 20 59.8 20 70 C23.3 70 26.6 70 30 70 C30 83.2 30 96.4 30 110 C33.3 110 36.6 110 40 110 C40 113.3 40 116.6 40 120 C43.3 120 46.6 120 50 120 C50 123.3 50 126.6 50 130 C66.5 130 83 130 100 130 C100 133.3 100 136.6 100 140 C96.7 140 93.4 140 90 140 C90 143.3 90 146.6 90 150 C76.8 150 63.6 150 50 150 C50 146.7 50 143.4 50 140 C46.7 140 43.4 140 40 140 C40 136.7 40 133.4 40 130 C36.7 130 33.4 130 30 130 C30 126.7 30 123.4 30 120 C26.7 120 23.4 120 20 120 C20 116.7 20 113.4 20 110 C16.7 110 13.4 110 10 110 C10 103.4 10 96.8 10 90 C6.7 90 3.4 90 0 90 C0 60.3 0 30.6 0 0 Z " fill="#4D566F" transform="translate(20,20)"/>
<path d="M0 0 C13.2 0 26.4 0 40 0 C40 3.3 40 6.6 40 10 C46.6 10 53.2 10 60 10 C60 33.1 60 56.2 60 80 C56.7 80 53.4 80 50 80 C50 76.7 50 73.4 50 70 C46.7 70 43.4 70 40 70 C40 63.4 40 56.8 40 50 C43.3 50 46.6 50 50 50 C50 46.7 50 43.4 50 40 C43.4 40 36.8 40 30 40 C30 43.3 30 46.6 30 50 C26.7 50 23.4 50 20 50 C20 46.7 20 43.4 20 40 C16.7 40 13.4 40 10 40 C10 36.7 10 33.4 10 30 C6.7 30 3.4 30 0 30 C0 26.7 0 23.4 0 20 C-6.6 20 -13.2 20 -20 20 C-20 16.7 -20 13.4 -20 10 C-13.4 10 -6.8 10 0 10 C0 6.7 0 3.4 0 0 Z " fill="#828A9B" transform="translate(70,30)"/>
<path d="M0 0 C3.3 0 6.6 0 10 0 C10 3.3 10 6.6 10 10 C13.3 10 16.6 10 20 10 C20 13.3 20 16.6 20 20 C23.3 20 26.6 20 30 20 C30 23.3 30 26.6 30 30 C26.7 30 23.4 30 20 30 C20 36.6 20 43.2 20 50 C23.3 50 26.6 50 30 50 C30 46.7 30 43.4 30 40 C36.6 40 43.2 40 50 40 C50 43.3 50 46.6 50 50 C56.6 50 63.2 50 70 50 C70 56.6 70 63.2 70 70 C50.2 70 30.4 70 10 70 C10 66.7 10 63.4 10 60 C6.7 60 3.4 60 0 60 C0 40.2 0 20.4 0 0 Z " fill="#828A9B" transform="translate(50,70)"/>
<path d="M0 0 C6.6 0 13.2 0 20 0 C20 3.3 20 6.6 20 10 C23.3 10 26.6 10 30 10 C30 13.3 30 16.6 30 20 C33.3 20 36.6 20 40 20 C40 23.3 40 26.6 40 30 C43.3 30 46.6 30 50 30 C50 26.7 50 23.4 50 20 C56.6 20 63.2 20 70 20 C70 23.3 70 26.6 70 30 C66.7 30 63.4 30 60 30 C60 39.9 60 49.8 60 60 C50.1 60 40.2 60 30 60 C30 63.3 30 66.6 30 70 C26.7 70 23.4 70 20 70 C20 63.4 20 56.8 20 50 C23.3 50 26.6 50 30 50 C30 46.7 30 43.4 30 40 C26.7 40 23.4 40 20 40 C20 36.7 20 33.4 20 30 C16.7 30 13.4 30 10 30 C10 26.7 10 23.4 10 20 C6.7 20 3.4 20 0 20 C0 13.4 0 6.8 0 0 Z " fill="#4D566F" transform="translate(50,50)"/>
<path d="M0 0 C9.9 0 19.8 0 30 0 C30 16.5 30 33 30 50 C26.7 50 23.4 50 20 50 C20 59.9 20 69.8 20 80 C16.7 80 13.4 80 10 80 C10 63.5 10 47 10 30 C3.4 30 -3.2 30 -10 30 C-10 26.7 -10 23.4 -10 20 C-6.7 20 -3.4 20 0 20 C0 13.4 0 6.8 0 0 Z " fill="#969DAB" transform="translate(120,10)"/>
<path d="M0 0 C3.3 0 6.6 0 10 0 C10 29.7 10 59.4 10 90 C6.7 90 3.4 90 0 90 C0 96.6 0 103.2 0 110 C-3.3 110 -6.6 110 -10 110 C-10 86.9 -10 63.8 -10 40 C-6.7 40 -3.4 40 0 40 C0 26.8 0 13.6 0 0 Z " fill="#4D566F" transform="translate(150,20)"/>
<path d="M0 0 C6.6 0 13.2 0 20 0 C20 3.3 20 6.6 20 10 C36.5 10 53 10 70 10 C70 13.3 70 16.6 70 20 C66.7 20 63.4 20 60 20 C60 23.3 60 26.6 60 30 C46.8 30 33.6 30 20 30 C20 26.7 20 23.4 20 20 C16.7 20 13.4 20 10 20 C10 16.7 10 13.4 10 10 C6.7 10 3.4 10 0 10 C0 6.7 0 3.4 0 0 Z " fill="#3F485F" transform="translate(50,140)"/>
<path d="M0 0 C3.3 0 6.6 0 10 0 C10 9.9 10 19.8 10 30 C6.7 30 3.4 30 0 30 C0 39.9 0 49.8 0 60 C-3.3 60 -6.6 60 -10 60 C-10 43.5 -10 27 -10 10 C-6.7 10 -3.4 10 0 10 C0 6.7 0 3.4 0 0 Z " fill="#6F7689" transform="translate(140,30)"/>
<path d="M0 0 C3.3 0 6.6 0 10 0 C10 3.3 10 6.6 10 10 C13.3 10 16.6 10 20 10 C20 26.5 20 43 20 60 C16.7 60 13.4 60 10 60 C10 50.1 10 40.2 10 30 C6.7 30 3.4 30 0 30 C0 20.1 0 10.2 0 0 Z " fill="#6F7689" transform="translate(30,30)"/>
<path d="M0 0 C19.8 0 39.6 0 60 0 C60 3.3 60 6.6 60 10 C40.2 10 20.4 10 0 10 C0 6.7 0 3.4 0 0 Z " fill="#6F7689" transform="translate(70,140)"/>
<path d="M0 0 C3.3 0 6.6 0 10 0 C10 6.6 10 13.2 10 20 C0.1 20 -9.8 20 -20 20 C-20 23.3 -20 26.6 -20 30 C-23.3 30 -26.6 30 -30 30 C-30 23.4 -30 16.8 -30 10 C-20.1 10 -10.2 10 0 10 C0 6.7 0 3.4 0 0 Z " fill="#4D566F" transform="translate(100,90)"/>
<path d="M0 0 C3.3 0 6.6 0 10 0 C10 13.2 10 26.4 10 40 C13.3 40 16.6 40 20 40 C20 43.3 20 46.6 20 50 C13.4 50 6.8 50 0 50 C0 33.5 0 17 0 0 Z " fill="#5C6478" transform="translate(40,90)"/>
<path d="M0 0 C3.3 0 6.6 0 10 0 C10 19.8 10 39.6 10 60 C6.7 60 3.4 60 0 60 C0 40.2 0 20.4 0 0 Z " fill="#3E4862" transform="translate(150,20)"/>
<path d="M0 0 C19.8 0 39.6 0 60 0 C60 3.3 60 6.6 60 10 C40.2 10 20.4 10 0 10 C0 6.7 0 3.4 0 0 Z " fill="#3E4862" transform="translate(60,20)"/>
<path d="M0 0 C3.3 0 6.6 0 10 0 C10 19.8 10 39.6 10 60 C6.7 60 3.4 60 0 60 C0 40.2 0 20.4 0 0 Z " fill="#3E4862" transform="translate(20,20)"/>
<path d="M0 0 C3.3 0 6.6 0 10 0 C10 16.5 10 33 10 50 C6.7 50 3.4 50 0 50 C0 33.5 0 17 0 0 Z " fill="#5C6478" transform="translate(130,90)"/>
<path d="M0 0 C13.2 0 26.4 0 40 0 C40 3.3 40 6.6 40 10 C26.8 10 13.6 10 0 10 C0 6.7 0 3.4 0 0 Z " fill="#1E2434" transform="translate(70,160)"/>
<path d="M0 0 C13.2 0 26.4 0 40 0 C40 3.3 40 6.6 40 10 C26.8 10 13.6 10 0 10 C0 6.7 0 3.4 0 0 Z " fill="#AEB3BF" transform="translate(70,30)"/>
<path d="M0 0 C6.6 0 13.2 0 20 0 C20 6.6 20 13.2 20 20 C16.7 20 13.4 20 10 20 C10 16.7 10 13.4 10 10 C6.7 10 3.4 10 0 10 C0 6.7 0 3.4 0 0 Z " fill="#3F485F" transform="translate(50,140)"/>
<path d="M0 0 C3.3 0 6.6 0 10 0 C10 6.6 10 13.2 10 20 C3.4 20 -3.2 20 -10 20 C-10 16.7 -10 13.4 -10 10 C-6.7 10 -3.4 10 0 10 C0 6.7 0 3.4 0 0 Z " fill="#5C6478" transform="translate(110,100)"/>
<path d="M0 0 C3.3 0 6.6 0 10 0 C10 9.9 10 19.8 10 30 C6.7 30 3.4 30 0 30 C0 20.1 0 10.2 0 0 Z " fill="#1E2434" transform="translate(150,80)"/>
<path d="M0 0 C3.3 0 6.6 0 10 0 C10 9.9 10 19.8 10 30 C6.7 30 3.4 30 0 30 C0 20.1 0 10.2 0 0 Z " fill="#1E2434" transform="translate(20,80)"/>
<path d="M0 0 C3.3 0 6.6 0 10 0 C10 9.9 10 19.8 10 30 C6.7 30 3.4 30 0 30 C0 20.1 0 10.2 0 0 Z " fill="#5C6478" transform="translate(140,30)"/>
<path d="M0 0 C3.3 0 6.6 0 10 0 C10 9.9 10 19.8 10 30 C6.7 30 3.4 30 0 30 C0 20.1 0 10.2 0 0 Z " fill="#5C6478" transform="translate(30,30)"/>
<path d="M0 0 C9.9 0 19.8 0 30 0 C30 3.3 30 6.6 30 10 C20.1 10 10.2 10 0 10 C0 6.7 0 3.4 0 0 Z " fill="#3E4862" transform="translate(120,10)"/>
<path d="M0 0 C9.9 0 19.8 0 30 0 C30 3.3 30 6.6 30 10 C20.1 10 10.2 10 0 10 C0 6.7 0 3.4 0 0 Z " fill="#3E4862" transform="translate(30,10)"/>
<path d="M0 0 C3.3 0 6.6 0 10 0 C10 6.6 10 13.2 10 20 C6.7 20 3.4 20 0 20 C0 13.4 0 6.8 0 0 Z " fill="#1E2434" transform="translate(140,110)"/>
<path d="M0 0 C3.3 0 6.6 0 10 0 C10 6.6 10 13.2 10 20 C6.7 20 3.4 20 0 20 C0 13.4 0 6.8 0 0 Z " fill="#6F7689" transform="translate(50,110)"/>
<path d="M0 0 C3.3 0 6.6 0 10 0 C10 6.6 10 13.2 10 20 C6.7 20 3.4 20 0 20 C0 13.4 0 6.8 0 0 Z " fill="#1E2434" transform="translate(30,110)"/>
<path d="M0 0 C6.6 0 13.2 0 20 0 C20 3.3 20 6.6 20 10 C13.4 10 6.8 10 0 10 C0 6.7 0 3.4 0 0 Z " fill="#3F485F" transform="translate(50,50)"/>
<path d="M0 0 C6.6 0 13.2 0 20 0 C20 3.3 20 6.6 20 10 C13.4 10 6.8 10 0 10 C0 6.7 0 3.4 0 0 Z " fill="#969DAB" transform="translate(110,30)"/>
<path d="M0 0 C6.6 0 13.2 0 20 0 C20 3.3 20 6.6 20 10 C13.4 10 6.8 10 0 10 C0 6.7 0 3.4 0 0 Z " fill="#969DAB" transform="translate(50,30)"/>
<path d="M0 0 C3.3 0 6.6 0 10 0 C10 3.3 10 6.6 10 10 C6.7 10 3.4 10 0 10 C0 6.7 0 3.4 0 0 Z " fill="#1E2434" transform="translate(110,150)"/>
<path d="M0 0 C3.3 0 6.6 0 10 0 C10 3.3 10 6.6 10 10 C6.7 10 3.4 10 0 10 C0 6.7 0 3.4 0 0 Z " fill="#1E2434" transform="translate(60,150)"/>
<path d="M0 0 C3.3 0 6.6 0 10 0 C10 3.3 10 6.6 10 10 C6.7 10 3.4 10 0 10 C0 6.7 0 3.4 0 0 Z " fill="#1E2434" transform="translate(120,140)"/>
<path d="M0 0 C3.3 0 6.6 0 10 0 C10 3.3 10 6.6 10 10 C6.7 10 3.4 10 0 10 C0 6.7 0 3.4 0 0 Z " fill="#3F485F" transform="translate(110,140)"/>
<path d="M0 0 C3.3 0 6.6 0 10 0 C10 3.3 10 6.6 10 10 C6.7 10 3.4 10 0 10 C0 6.7 0 3.4 0 0 Z " fill="#5C6478" transform="translate(100,140)"/>
<path d="M0 0 C3.3 0 6.6 0 10 0 C10 3.3 10 6.6 10 10 C6.7 10 3.4 10 0 10 C0 6.7 0 3.4 0 0 Z " fill="#5C6478" transform="translate(70,140)"/>
<path d="M0 0 C3.3 0 6.6 0 10 0 C10 3.3 10 6.6 10 10 C6.7 10 3.4 10 0 10 C0 6.7 0 3.4 0 0 Z " fill="#1E2434" transform="translate(50,140)"/>
<path d="M0 0 C3.3 0 6.6 0 10 0 C10 3.3 10 6.6 10 10 C6.7 10 3.4 10 0 10 C0 6.7 0 3.4 0 0 Z " fill="#1E2434" transform="translate(130,130)"/>
<path d="M0 0 C3.3 0 6.6 0 10 0 C10 3.3 10 6.6 10 10 C6.7 10 3.4 10 0 10 C0 6.7 0 3.4 0 0 Z " fill="#5C6478" transform="translate(120,130)"/>
<path d="M0 0 C3.3 0 6.6 0 10 0 C10 3.3 10 6.6 10 10 C6.7 10 3.4 10 0 10 C0 6.7 0 3.4 0 0 Z " fill="#6F7689" transform="translate(110,130)"/>
<path d="M0 0 C3.3 0 6.6 0 10 0 C10 3.3 10 6.6 10 10 C6.7 10 3.4 10 0 10 C0 6.7 0 3.4 0 0 Z " fill="#6F7689" transform="translate(60,130)"/>
<path d="M0 0 C3.3 0 6.6 0 10 0 C10 3.3 10 6.6 10 10 C6.7 10 3.4 10 0 10 C0 6.7 0 3.4 0 0 Z " fill="#5C6478" transform="translate(50,130)"/>
<path d="M0 0 C3.3 0 6.6 0 10 0 C10 3.3 10 6.6 10 10 C6.7 10 3.4 10 0 10 C0 6.7 0 3.4 0 0 Z " fill="#1E2434" transform="translate(40,130)"/>
<path d="M0 0 C3.3 0 6.6 0 10 0 C10 3.3 10 6.6 10 10 C6.7 10 3.4 10 0 10 C0 6.7 0 3.4 0 0 Z " fill="#4D566F" transform="translate(130,120)"/>
<path d="M0 0 C3.3 0 6.6 0 10 0 C10 3.3 10 6.6 10 10 C6.7 10 3.4 10 0 10 C0 6.7 0 3.4 0 0 Z " fill="#4D566F" transform="translate(40,120)"/>
<path d="M0 0 C3.3 0 6.6 0 10 0 C10 3.3 10 6.6 10 10 C6.7 10 3.4 10 0 10 C0 6.7 0 3.4 0 0 Z " fill="#5C6478" transform="translate(70,110)"/>
<path d="M0 0 C3.3 0 6.6 0 10 0 C10 3.3 10 6.6 10 10 C6.7 10 3.4 10 0 10 C0 6.7 0 3.4 0 0 Z " fill="#3F485F" transform="translate(140,100)"/>
<path d="M0 0 C3.3 0 6.6 0 10 0 C10 3.3 10 6.6 10 10 C6.7 10 3.4 10 0 10 C0 6.7 0 3.4 0 0 Z " fill="#3F485F" transform="translate(90,100)"/>
<path d="M0 0 C3.3 0 6.6 0 10 0 C10 3.3 10 6.6 10 10 C6.7 10 3.4 10 0 10 C0 6.7 0 3.4 0 0 Z " fill="#3F485F" transform="translate(70,100)"/>
<path d="M0 0 C3.3 0 6.6 0 10 0 C10 3.3 10 6.6 10 10 C6.7 10 3.4 10 0 10 C0 6.7 0 3.4 0 0 Z " fill="#3F485F" transform="translate(30,100)"/>
<path d="M0 0 C3.3 0 6.6 0 10 0 C10 3.3 10 6.6 10 10 C6.7 10 3.4 10 0 10 C0 6.7 0 3.4 0 0 Z " fill="#3F485F" transform="translate(100,90)"/>
<path d="M0 0 C3.3 0 6.6 0 10 0 C10 3.3 10 6.6 10 10 C6.7 10 3.4 10 0 10 C0 6.7 0 3.4 0 0 Z " fill="#5C6478" transform="translate(80,90)"/>
<path d="M0 0 C3.3 0 6.6 0 10 0 C10 3.3 10 6.6 10 10 C6.7 10 3.4 10 0 10 C0 6.7 0 3.4 0 0 Z " fill="#5C6478" transform="translate(70,80)"/>
<path d="M0 0 C3.3 0 6.6 0 10 0 C10 3.3 10 6.6 10 10 C6.7 10 3.4 10 0 10 C0 6.7 0 3.4 0 0 Z " fill="#5C6478" transform="translate(110,70)"/>
<path d="M0 0 C3.3 0 6.6 0 10 0 C10 3.3 10 6.6 10 10 C6.7 10 3.4 10 0 10 C0 6.7 0 3.4 0 0 Z " fill="#3F485F" transform="translate(100,70)"/>
<path d="M0 0 C3.3 0 6.6 0 10 0 C10 3.3 10 6.6 10 10 C6.7 10 3.4 10 0 10 C0 6.7 0 3.4 0 0 Z " fill="#5C6478" transform="translate(60,70)"/>
<path d="M0 0 C3.3 0 6.6 0 10 0 C10 3.3 10 6.6 10 10 C6.7 10 3.4 10 0 10 C0 6.7 0 3.4 0 0 Z " fill="#5C6478" transform="translate(50,60)"/>
<path d="M0 0 C3.3 0 6.6 0 10 0 C10 3.3 10 6.6 10 10 C6.7 10 3.4 10 0 10 C0 6.7 0 3.4 0 0 Z " fill="#828A9B" transform="translate(130,30)"/>
<path d="M0 0 C3.3 0 6.6 0 10 0 C10 3.3 10 6.6 10 10 C6.7 10 3.4 10 0 10 C0 6.7 0 3.4 0 0 Z " fill="#828A9B" transform="translate(40,30)"/>
<path d="M0 0 C3.3 0 6.6 0 10 0 C10 3.3 10 6.6 10 10 C6.7 10 3.4 10 0 10 C0 6.7 0 3.4 0 0 Z " fill="#828A9B" transform="translate(120,20)"/>
<path d="M0 0 C3.3 0 6.6 0 10 0 C10 3.3 10 6.6 10 10 C6.7 10 3.4 10 0 10 C0 6.7 0 3.4 0 0 Z " fill="#828A9B" transform="translate(50,20)"/>
</svg>
