<?xml version="1.0" standalone="no"?>
<!DOCTYPE svg PUBLIC "-//W3C//DTD SVG 20010904//EN"
 "http://www.w3.org/TR/2001/REC-SVG-20010904/DTD/svg10.dtd">
<svg version="1.0" xmlns="http://www.w3.org/2000/svg"
 width="15.000000pt" height="15.000000pt" viewBox="0 0 24.000000 24.000000"
 preserveAspectRatio="xMidYMid meet">

<g transform="translate(0.000000,24.000000) scale(0.100000,-0.100000)"
fill="#fff" stroke="none">
<path d="M93 224 c-3 -9 -13 -14 -24 -11 -22 6 -45 -19 -41 -43 2 -10 -4 -20
-13 -23 -20 -8 -20 -46 0 -54 9 -3 15 -13 13 -23 -4 -24 19 -49 41 -43 11 3
21 -2 24 -11 8 -20 46 -21 54 -1 3 9 13 15 23 13 23 -4 50 20 43 39 -4 9 1 19
10 25 21 12 22 47 1 55 -9 3 -14 13 -11 24 6 22 -19 45 -43 41 -10 -2 -20 4
-23 13 -8 20 -46 19 -54 -1z m49 -16 c13 -19 18 -21 30 -10 21 17 44 -8 25
-27 -9 -9 -7 -16 13 -32 l25 -19 -25 -19 c-20 -16 -22 -23 -13 -32 19 -19 -4
-44 -24 -27 -12 10 -18 7 -34 -12 l-19 -25 -19 25 c-16 20 -23 22 -32 13 -19
-19 -44 4 -27 24 10 12 7 18 -12 34 l-25 19 25 19 c19 16 22 22 12 34 -17 20
8 43 27 24 10 -9 16 -7 28 11 19 28 27 28 45 0z"/>
<path d="M86 154 c-31 -30 -9 -84 34 -84 24 0 50 26 50 50 0 24 -26 50 -50 50
-10 0 -26 -7 -34 -16z m64 -9 c26 -32 -13 -81 -47 -59 -10 6 -19 19 -21 28 -8
38 43 61 68 31z"/>
</g>
</svg>
