<?xml version="1.0" standalone="no"?>
<!DOCTYPE svg PUBLIC "-//W3C//DTD SVG 20010904//EN"
 "http://www.w3.org/TR/2001/REC-SVG-20010904/DTD/svg10.dtd">
<svg version="1.0" xmlns="http://www.w3.org/2000/svg"
 width="15.000000pt" height="15.000000pt" viewBox="0 0 24.000000 24.000000"
 preserveAspectRatio="xMidYMid meet">

<g transform="translate(0.000000,24.000000) scale(0.100000,-0.100000)"
fill="#fff" stroke="none">
<path d="M77 222 c-19 -21 -23 -77 -6 -88 6 -4 -1 -13 -18 -24 -32 -19 -59
-71 -49 -95 8 -22 224 -22 233 0 3 9 2 19 -2 23 -4 4 -10 1 -12 -5 -3 -9 -34
-13 -104 -13 -112 0 -122 9 -70 61 39 39 96 40 140 3 24 -20 31 -22 31 -10 0
9 -14 25 -31 35 -18 11 -26 22 -20 25 18 11 13 71 -7 89 -24 22 -65 21 -85 -1z
m73 -16 c28 -35 -11 -93 -47 -70 -36 22 -23 84 17 84 10 0 23 -7 30 -14z"/>
</g>
</svg>
