<?xml version="1.0" standalone="no"?>
<!DOCTYPE svg PUBLIC "-//W3C//DTD SVG 20010904//EN"
 "http://www.w3.org/TR/2001/REC-SVG-20010904/DTD/svg10.dtd">
<svg version="1.0" xmlns="http://www.w3.org/2000/svg"
 width="15.000000pt" height="15.000000pt" viewBox="0 0 24.000000 24.000000"
 preserveAspectRatio="xMidYMid meet">

<g transform="translate(0.000000,24.000000) scale(0.100000,-0.100000)"
fill="#fff" stroke="none">
<path d="M171 208 c-5 -13 -23 -36 -40 -52 -36 -34 -37 -42 -14 -68 15 -17 15
-20 -6 -42 -35 -37 -6 -43 30 -6 29 29 30 32 15 49 -27 30 -19 38 34 33 52 -5
74 14 23 20 -20 2 -29 9 -31 26 -2 15 2 22 13 22 10 0 15 7 13 17 -5 26 -27
27 -37 1z"/>
<path d="M94 195 c-28 -28 -24 -56 4 -32 10 8 25 17 35 20 21 8 22 23 1 31 -9
3 -25 -4 -40 -19z"/>
<path d="M20 200 c0 -5 9 -10 20 -10 11 0 20 5 20 10 0 6 -9 10 -20 10 -11 0
-20 -4 -20 -10z"/>
<path d="M13 173 c9 -2 23 -2 30 0 6 3 -1 5 -18 5 -17 0 -22 -2 -12 -5z"/>
<path d="M28 143 c6 -2 18 -2 25 0 6 3 1 5 -13 5 -14 0 -19 -2 -12 -5z"/>
<path d="M42 67 c-30 -31 -41 -57 -24 -57 14 0 83 76 76 83 -12 12 -19 8 -52
-26z"/>
</g>
</svg>
