<?xml version="1.0" standalone="no"?>
<!DOCTYPE svg PUBLIC "-//W3C//DTD SVG 20010904//EN"
 "http://www.w3.org/TR/2001/REC-SVG-20010904/DTD/svg10.dtd">
<svg version="1.0" xmlns="http://www.w3.org/2000/svg"
 width="15.000000pt" height="15.000000pt" viewBox="0 0 24.000000 24.000000"
 preserveAspectRatio="xMidYMid meet">

<g transform="translate(0.000000,24.000000) scale(0.100000,-0.100000)"
fill="#fff" stroke="none">
<path d="M74 184 c-18 -9 -42 -26 -55 -40 l-22 -24 22 -24 c13 -14 39 -32 59
-42 44 -21 95 -8 137 36 l29 30 -25 26 c-24 26 -77 54 -101 54 -7 0 -27 -7
-44 -16z m78 -31 c22 -20 23 -41 1 -65 -20 -22 -41 -23 -65 -1 -22 20 -23 41
-1 65 20 22 41 23 65 1z"/>
<path d="M104 129 c-10 -17 13 -36 27 -22 12 12 4 33 -11 33 -5 0 -12 -5 -16
-11z"/>
</g>
</svg>
