<?xml version="1.0" encoding="UTF-8"?>
<svg version="1.1" xmlns="http://www.w3.org/2000/svg" width="160" height="160">
<path d="M0 0 C9.9 0 19.8 0 30 0 C30 26.4 30 52.8 30 80 C26.7 80 23.4 80 20 80 C20 83.3 20 86.6 20 90 C16.7 90 13.4 90 10 90 C10 93.3 10 96.6 10 100 C-3.2 100 -16.4 100 -30 100 C-30 90.1 -30 80.2 -30 70 C-26.7 70 -23.4 70 -20 70 C-20 66.7 -20 63.4 -20 60 C-16.7 60 -13.4 60 -10 60 C-10 43.5 -10 27 -10 10 C-6.7 10 -3.4 10 0 10 C0 6.7 0 3.4 0 0 Z " fill="#1E8A77" transform="translate(40,30)"/>
<path d="M0 0 C9.9 0 19.8 0 30 0 C30 3.3 30 6.6 30 10 C33.3 10 36.6 10 40 10 C40 26.5 40 43 40 60 C43.3 60 46.6 60 50 60 C50 63.3 50 66.6 50 70 C53.3 70 56.6 70 60 70 C60 79.9 60 89.8 60 100 C46.8 100 33.6 100 20 100 C20 96.7 20 93.4 20 90 C16.7 90 13.4 90 10 90 C10 86.7 10 83.4 10 80 C6.7 80 3.4 80 0 80 C0 53.6 0 27.2 0 0 Z " fill="#2D2D2D" transform="translate(90,30)"/>
<path d="M0 0 C9.9 0 19.8 0 30 0 C30 23.1 30 46.2 30 70 C23.4 70 16.8 70 10 70 C10 66.7 10 63.4 10 60 C6.7 60 3.4 60 0 60 C0 40.2 0 20.4 0 0 Z " fill="#1E8A77" transform="translate(100,40)"/>
<path d="M0 0 C9.9 0 19.8 0 30 0 C30 26.4 30 52.8 30 80 C26.7 80 23.4 80 20 80 C20 56.9 20 33.8 20 10 C13.4 10 6.8 10 0 10 C0 6.7 0 3.4 0 0 Z " fill="#191919" transform="translate(40,30)"/>
<path d="M0 0 C3.3 0 6.6 0 10 0 C10 13.2 10 26.4 10 40 C16.6 40 23.2 40 30 40 C30 46.6 30 53.2 30 60 C23.4 60 16.8 60 10 60 C10 56.7 10 53.4 10 50 C6.7 50 3.4 50 0 50 C0 33.5 0 17 0 0 Z " fill="#33EBCB" transform="translate(100,50)"/>
<path d="M0 0 C3.3 0 6.6 0 10 0 C10 6.6 10 13.2 10 20 C19.9 20 29.8 20 40 20 C40 23.3 40 26.6 40 30 C26.8 30 13.6 30 0 30 C0 20.1 0 10.2 0 0 Z " fill="#191919" transform="translate(10,100)"/>
<path d="M0 0 C3.3 0 6.6 0 10 0 C10 9.9 10 19.8 10 30 C-3.2 30 -16.4 30 -30 30 C-30 26.7 -30 23.4 -30 20 C-20.1 20 -10.2 20 0 20 C0 13.4 0 6.8 0 0 Z " fill="#191919" transform="translate(140,100)"/>
<path d="M0 0 C3.3 0 6.6 0 10 0 C10 16.5 10 33 10 50 C3.4 50 -3.2 50 -10 50 C-10 46.7 -10 43.4 -10 40 C-6.7 40 -3.4 40 0 40 C0 26.8 0 13.6 0 0 Z " fill="#33EBCB" transform="translate(40,50)"/>
<path d="M0 0 C3.3 0 6.6 0 10 0 C10 9.9 10 19.8 10 30 C0.1 30 -9.8 30 -20 30 C-20 26.7 -20 23.4 -20 20 C-13.4 20 -6.8 20 0 20 C0 13.4 0 6.8 0 0 Z " fill="#1E8A77" transform="translate(130,90)"/>
<path d="M0 0 C3.3 0 6.6 0 10 0 C10 16.5 10 33 10 50 C6.7 50 3.4 50 0 50 C0 33.5 0 17 0 0 Z " fill="#191919" transform="translate(120,40)"/>
<path d="M0 0 C3.3 0 6.6 0 10 0 C10 16.5 10 33 10 50 C6.7 50 3.4 50 0 50 C0 33.5 0 17 0 0 Z " fill="#2D2D2D" transform="translate(30,40)"/>
<path d="M0 0 C3.3 0 6.6 0 10 0 C10 3.3 10 6.6 10 10 C13.3 10 16.6 10 20 10 C20 13.3 20 16.6 20 20 C13.4 20 6.8 20 0 20 C0 13.4 0 6.8 0 0 Z " fill="#33EBCB" transform="translate(20,90)"/>
<path d="M0 0 C3.3 0 6.6 0 10 0 C10 9.9 10 19.8 10 30 C6.7 30 3.4 30 0 30 C0 20.1 0 10.2 0 0 Z " fill="#2D2D2D" transform="translate(10,100)"/>
<path d="M0 0 C9.9 0 19.8 0 30 0 C30 3.3 30 6.6 30 10 C20.1 10 10.2 10 0 10 C0 6.7 0 3.4 0 0 Z " fill="#2D2D2D" transform="translate(40,30)"/>
<path d="M0 0 C3.3 0 6.6 0 10 0 C10 3.3 10 6.6 10 10 C6.7 10 3.4 10 0 10 C0 6.7 0 3.4 0 0 Z " fill="#191919" transform="translate(100,110)"/>
<path d="M0 0 C3.3 0 6.6 0 10 0 C10 3.3 10 6.6 10 10 C6.7 10 3.4 10 0 10 C0 6.7 0 3.4 0 0 Z " fill="#191919" transform="translate(50,110)"/>
<path d="M0 0 C3.3 0 6.6 0 10 0 C10 3.3 10 6.6 10 10 C6.7 10 3.4 10 0 10 C0 6.7 0 3.4 0 0 Z " fill="#1E8A77" transform="translate(100,100)"/>
<path d="M0 0 C3.3 0 6.6 0 10 0 C10 3.3 10 6.6 10 10 C6.7 10 3.4 10 0 10 C0 6.7 0 3.4 0 0 Z " fill="#2D2D2D" transform="translate(130,90)"/>
<path d="M0 0 C3.3 0 6.6 0 10 0 C10 3.3 10 6.6 10 10 C6.7 10 3.4 10 0 10 C0 6.7 0 3.4 0 0 Z " fill="#FFFFFF" transform="translate(30,90)"/>
<path d="M0 0 C3.3 0 6.6 0 10 0 C10 3.3 10 6.6 10 10 C6.7 10 3.4 10 0 10 C0 6.7 0 3.4 0 0 Z " fill="#2D2D2D" transform="translate(20,90)"/>
<path d="M0 0 C3.3 0 6.6 0 10 0 C10 3.3 10 6.6 10 10 C6.7 10 3.4 10 0 10 C0 6.7 0 3.4 0 0 Z " fill="#FFFFFF" transform="translate(100,50)"/>
<path d="M0 0 C3.3 0 6.6 0 10 0 C10 3.3 10 6.6 10 10 C6.7 10 3.4 10 0 10 C0 6.7 0 3.4 0 0 Z " fill="#FFFFFF" transform="translate(40,50)"/>
<path d="M0 0 C3.3 0 6.6 0 10 0 C10 3.3 10 6.6 10 10 C6.7 10 3.4 10 0 10 C0 6.7 0 3.4 0 0 Z " fill="#33EBCB" transform="translate(100,40)"/>
<path d="M0 0 C3.3 0 6.6 0 10 0 C10 3.3 10 6.6 10 10 C6.7 10 3.4 10 0 10 C0 6.7 0 3.4 0 0 Z " fill="#33EBCB" transform="translate(40,40)"/>
</svg>
